{"title":"Z-Nation - Season 02 - Episode 01 - The Murphy ~ 720P || AAC ||","uid":12569088,"size":629605940,"categoryP":"video","categoryS":"tv_shows","magnet":"?xt=urn:btih:4a8b8b51de5c1a513e7935d282e6dbb2dc6e1cc1&amp;dn=Z-Nation+-+Season+02+-+Episode+01+-+The+Murphy+%7E+720P+%7C%7C+AAC+%7C%7C&amp;tr=udp%3A%2F%2Ftracker.leechers-paradise.org%3A6969&amp;tr=udp%3A%2F%2Fzer0day.ch%3A1337&amp;tr=udp%3A%2F%2Fopen.demonii.com%3A1337&amp;tr=udp%3A%2F%2Ftracker.coppersurfer.tk%3A6969&amp;tr=udp%3A%2F%2Fexodus.desync.com%3A6969","seeders":0,"leechers":1,"uploader":"Ecelon","files":1,"time":1444824666,"description":"General\r\nComplete name : Z-Nation - Season 02 - Episode 01 - The Murphy.mp4\r\nFormat : MPEG-4\r\nFormat profile : Base Media / Version 2\r\nCodec ID : mp42\r\nFile size : 600 MiB\r\nDuration : 43mn 2s\r\nOverall bit rate : 1 951 Kbps\r\nEncoded date : UTC 2015-10-14 05:23:11\r\nTagged date : UTC 2015-10-14 07:29:13\r\nWriting application : HandBrake 0.9.5 2011010300\r\n\r\nVideo\r\nID : 1\r\nFormat : AVC\r\nFormat/Info : Advanced Video Codec\r\nFormat profile :   \r\nFormat settings, CABAC : Yes\r\nFormat settings, ReFrames : 4 frames\r\nCodec ID : avc1\r\nCodec ID/Info : Advanced Video Coding\r\nDuration : 43mn 2s\r\nBit rate mode : Variable\r\nBit rate : 1 561 Kbps\r\nWidth : 1 280 pixels\r\nHeight : 720 pixels\r\nDisplay aspect ratio : 16:9\r\nFrame rate mode : Variable\r\nFrame rate : 23.976 fps\r\nMinimum frame rate : 23.810 fps\r\nMaximum frame rate : 24.390 fps\r\nColor space : YUV\r\nChroma subsampling : 4:2:0\r\nBit depth : 8 bits\r\nScan type : Progressive\r\nBits/(Pixel*Frame) : 0.071\r\nStream size : 480 MiB (80%)\r\nWriting library : x264 core 112\r\nEncoding settings : cabac=1 / ref=2 / deblock=1:0:0 / analyse=0x1:0x111 / me=hex / subme=6 / psy=1 / psy_rd=1.00:0.00 / mixed_ref=0 / me_range=16 / chroma_me=1 / trellis=0 / 8x8dct=0 / cqm=0 / deadzone=21,11 / fast_pskip=1 / chroma_qp_offset=-2 / threads=6 / sliced_threads=0 / nr=0 / decimate=1 / interlaced=0 / constrained_intra=0 / bframes=2 / b_pyramid=2 / b_adapt=1 / b_bias=0 / direct=1 / weightb=0 / open_gop=0 / weightp=2 / keyint=240 / keyint_min=23 / scenecut=40 / intra_refresh=0 / rc_lookahead=40 / rc=2pass / mbtree=1 / bitrate=1561 / ratetol=1.0 / qcomp=0.60 / qpmin=3 / qpmax=51 / qpstep=4 / cplxblur=20.0 / qblur=0.5 / ip_ratio=1.40 / aq=1:1.00\r\nEncoded date : UTC 2015-10-14 05:23:12\r\nTagged date : UTC 2015-10-14 07:29:13\r\nColor primaries : BT.709-5, BT.1361, IEC 61966-2-4, SMPTE RP177\r\nTransfer characteristics : BT.709-5, BT.1361\r\nMatrix coefficients : BT.709-5, BT.1361, IEC 61966-2-4 709, SMPTE RP177\r\n\r\nAudio\r\nID : 2\r\nFormat : AAC\r\nFormat/Info : Advanced Audio Codec\r\nFormat profile : LC\r\nCodec ID : 40\r\nDuration : 43mn 2s\r\nBit rate mode : Variable\r\nBit rate : 384 Kbps\r\nMaximum bit rate : 635 Kbps\r\nChannel(s) : 6 channels\r\nChannel positions : Front: L C R, Side: L R, LFE\r\nSampling rate : 48.0 KHz\r\nCompression mode : Lossy\r\nStream size : 118 MiB (20%)\r\nLanguage : English\r\nEncoded date : UTC 2015-10-14 05:23:13\r\nTagged date : UTC 2015-10-14 07:29:13\r\n\r\nText\r\nID : 3\r\nFormat : Timed text\r\nMuxing mode : sbtl\r\nCodec ID : tx3g\r\nDuration : 43mn 0s\r\nBit rate mode : Variable\r\nBit rate : 91 bps\r\nStream size : 28.6 KiB (0%)\r\nLanguage : English\r\nEncoded date : UTC 2015-10-14 05:23:15\r\nTagged date : UTC 2015-10-14 07:28:51","torrent":{"xt":"urn:btih:4a8b8b51de5c1a513e7935d282e6dbb2dc6e1cc1","amp;dn":"Z-Nation+-+Season+02+-+Episode+01+-+The+Murphy+%7E+720P+%7C%7C+AAC+%7C%7C","amp;tr":["udp%3A%2F%2Ftracker.leechers-paradise.org%3A6969","udp%3A%2F%2Fzer0day.ch%3A1337","udp%3A%2F%2Fopen.demonii.com%3A1337","udp%3A%2F%2Ftracker.coppersurfer.tk%3A6969","udp%3A%2F%2Fexodus.desync.com%3A6969"],"infoHash":"4a8b8b51de5c1a513e7935d282e6dbb2dc6e1cc1","infoHashBuffer":{"type":"Buffer","data":[74,139,139,81,222,92,26,81,62,121,53,210,130,230,219,178,220,110,28,193]},"announce":[],"urlList":[]}}